<?xml version="1.0" encoding="UTF-8" standalone="no"?>
<!-- Created with Inkscape (http://www.inkscape.org/) -->
<svg
   xmlns:dc="http://purl.org/dc/elements/1.1/"
   xmlns:cc="http://web.resource.org/cc/"
   xmlns:rdf="http://www.w3.org/1999/02/22-rdf-syntax-ns#"
   xmlns:svg="http://www.w3.org/2000/svg"
   xmlns="http://www.w3.org/2000/svg"
   xmlns:sodipodi="http://sodipodi.sourceforge.net/DTD/sodipodi-0.dtd"
   xmlns:inkscape="http://www.inkscape.org/namespaces/inkscape"
   version="1.0"
   width="239.12398"
   height="52.939999"
   viewBox="0 0 549 117"
   id="svg2"
   xml:space="preserve"
   sodipodi:version="0.32"
   inkscape:version="0.45.1"
   sodipodi:docname="Nordea.svg"
   inkscape:output_extension="org.inkscape.output.svg.inkscape"
   sodipodi:docbase="C:\Documents and Settings\Home User\Desktop\New Folder"><metadata
   id="metadata14"><rdf:RDF><cc:Work
       rdf:about=""><dc:format>image/svg+xml</dc:format><dc:type
         rdf:resource="http://purl.org/dc/dcmitype/StillImage" /></cc:Work></rdf:RDF></metadata><sodipodi:namedview
   inkscape:window-height="573"
   inkscape:window-width="744"
   inkscape:pageshadow="2"
   inkscape:pageopacity="0.0"
   guidetolerance="10.0"
   gridtolerance="10.0"
   objecttolerance="10.0"
   borderopacity="1.0"
   bordercolor="#666666"
   pagecolor="#ffffff"
   id="base"
   height="52.94px"
   width="239.12398px"
   inkscape:zoom="2.2384804"
   inkscape:cx="119.56199"
   inkscape:cy="25.969999"
   inkscape:window-x="88"
   inkscape:window-y="116"
   inkscape:current-layer="svg2" />
<defs
   id="defs4">
</defs>
<path
   d="M 81.441829,86.884134 C 81.441829,104.37313 96.447129,116.58539 117.92492,116.58539 C 139.40271,116.58539 154.40306,104.37313 154.40306,86.884134 C 154.40306,69.395136 139.40271,57.181891 117.92492,57.181891 C 96.446137,57.181891 81.441829,69.396129 81.441829,86.884134 L 81.441829,86.884134 z M 96.408459,86.886115 C 96.408459,76.564644 105.0553,69.627146 117.92492,69.627146 C 130.79354,69.627146 139.44236,76.564644 139.44236,86.886115 C 139.44236,97.204614 130.79453,104.14113 117.92492,104.14113 C 105.0553,104.14211 96.408459,97.204614 96.408459,86.886115 L 96.408459,86.886115 z "
   style="fill:#0065a4"
   id="path6" />
<path
   d="M 175.1045,63.089223 C 175.1045,61.86175 175.1045,58.647321 175.1045,58.647321 L 160.70499,58.647321 L 160.70499,115.0793 L 175.23734,115.0793 L 175.23734,85.037968 C 175.23734,79.899044 175.81935,74.669896 182.75784,72.129681 C 185.05515,71.28691 187.35839,70.913117 190.22579,70.920056 L 192.30992,70.924025 L 192.30992,57.169 C 192.30992,57.169 182.93037,57.169 175.1045,63.089223 L 175.1045,63.089223 z "
   style="fill:#0065a4"
   id="path8" />
<path
   d="M 251.5191,37.897295 C 251.5191,37.897295 251.5191,60.572807 251.5191,63.035682 C 245.83583,59.272954 237.91674,57.112485 229.47018,57.112485 C 207.99043,57.112485 192.99008,69.323749 192.99008,86.813739 C 192.99008,104.30273 207.99043,116.51301 229.47018,116.51301 C 237.89593,116.51301 245.4541,114.60636 251.52602,111.09845 C 251.52602,112.3755 251.52602,115.05352 251.52602,115.05352 L 265.94335,115.05352 L 265.94335,86.647166 C 265.94335,86.658072 265.94435,86.528186 265.94435,86.528186 L 265.94435,37.897295 L 251.5191,37.897295 L 251.5191,37.897295 z M 207.95374,86.886115 C 207.95374,76.564644 216.60057,69.627146 229.4692,69.627146 C 242.33784,69.627146 250.98369,76.564644 250.98369,86.886115 C 250.98369,97.204614 242.33784,104.14113 229.4692,104.14113 C 216.60057,104.14211 207.95374,97.204614 207.95374,86.886115 L 207.95374,86.886115 z "
   style="fill:#0065a4"
   id="path10" />
<path
   d="M 350.59529,86.85637 C 350.59529,104.62497 365.14749,116.55961 386.79978,116.55961 C 395.5993,116.55961 403.60762,115.0099 409.11637,111.17282 C 409.11637,112.68583 409.12331,115.11004 409.12331,115.11004 L 423.54958,115.11004 L 423.54958,87.157787 C 423.54958,69.210717 408.89227,57.153135 387.0764,57.153135 C 365.59566,57.153135 350.59529,69.368368 350.59529,86.85637 L 350.59529,86.85637 z M 365.55499,86.85637 C 365.55499,76.534897 374.20282,69.602359 387.07539,69.602359 C 399.94403,69.602359 408.58888,76.534897 408.58888,86.85637 C 408.58888,97.17586 399.94306,104.11039 387.07539,104.11039 C 374.20282,104.11039 365.55499,97.17586 365.55499,86.85637 L 365.55499,86.85637 z "
   style="fill:#0065a4"
   id="path12" />
<path
   d="M 345.34632,92.495009 C 343.51207,101.58604 337.3519,107.91178 330.43422,111.70228 C 324.14912,115.14376 317.27012,116.5725 309.09326,116.56159 C 286.72214,116.53383 272.72619,102.95926 272.72817,87.190505 C 272.72817,69.431822 288.13999,57.016308 309.09326,57.159086 C 336.93248,57.342512 345.29477,74.608423 345.91246,85.425642 C 345.91246,85.447456 292.41828,97.033085 291.64592,97.199658 C 295.43045,101.61777 301.43893,104.00727 309.09426,104.11336 C 318.18429,104.23829 324.88187,100.657 328.0001,96.246831 L 345.34632,92.495009 L 345.34632,92.495009 z M 288.01308,85.400856 C 289.81363,85.012189 325.54019,77.269598 327.4895,76.846229 C 324.35536,72.725571 317.99888,69.540886 309.09722,69.472472 C 296.8473,69.809581 288.61491,76.299914 288.01308,85.400856 L 288.01308,85.400856 z "
   style="fill:#0065a4"
   id="path14" />
<path
   d="M 61.348171,115.06939 L 75.316366,115.20126 L 75.316366,45.623028 L 60.858373,45.623028 L 60.858373,93.169226 L 17.027312,45.588327 L 2.7061459,45.588327 C 2.7061459,47.933215 2.7249843,115.23993 2.7249843,115.23993 L 17.180002,115.23993 L 17.166122,68.690184 L 61.348171,115.06939 L 61.348171,115.06939 z "
   style="fill:#0065a4"
   id="path16" />
<path
   d="M 450.84149,39.824762 C 447.27706,26.865912 441.49367,15.934667 434.46,8.3834345 C 481.95959,-2.4893101 515.606,-0.8890356 520.29777,12.197719 C 528.35267,34.664025 484.5246,76.594389 445.57863,89.102112 C 453.60381,78.829219 456.51781,60.463741 450.84149,39.824762 L 450.84149,39.824762 z M 524.5503,31.130334 C 529.21231,21.522738 530.25932,12.939357 527.68838,5.6399652 C 527.03203,3.7799188 526.1,2.158823 524.96176,0.67653647 C 538.10999,2.5484808 549.80667,22.10078 546.16193,44.227994 C 543.36591,61.203398 536.85079,76.04411 529.70507,84.856524 C 520.5625,80.335304 501.32053,79.240692 479.7555,82.726789 C 474.87138,83.516021 470.98769,84.302278 466.56068,85.420686 C 491.20927,72.448944 515.09439,50.615212 524.5503,31.130334 L 524.5503,31.130334 z "
   style="fill:#ffffff"
   id="path18" />
<path
   d="M 450.84149,39.824762 C 456.51781,60.463741 453.60281,78.829219 445.57766,89.103101 C 484.5236,76.595381 528.35168,34.664025 520.29677,12.19871 C 515.60501,-0.88804419 481.95861,-2.4883187 434.45901,8.3844259 C 441.49465,15.934667 447.27805,26.865912 450.84149,39.824762 L 450.84149,39.824762 z "
   style="fill:#0065a4"
   id="path20" />
<path
   d="M 524.5503,31.130334 C 529.21231,21.522738 530.25932,12.939357 527.68838,5.6399652 C 527.03203,3.7799188 526.1,2.158823 524.96176,0.67653647 C 538.10999,2.5484808 549.80667,22.10078 546.16193,44.227994 C 543.36591,61.203398 536.85079,76.04411 529.70507,84.856524 C 520.5625,80.335304 501.32053,79.240692 479.7555,82.726789 C 474.87138,83.516021 470.98769,84.302278 466.56068,85.420686 C 491.20927,72.448944 515.09439,50.615212 524.5503,31.130334 L 524.5503,31.130334 z "
   style="fill:#0065a4"
   id="path22" />
</svg>